999
autodxfXMIN:1,000000038E-07
999
autodxfXMAX:511,7610598594364
999
autodxfYMIN:1,000000083E-07
999
autodxfYMAX:261,7610598594364
0
SECTION
2
HEADER
9
$ACADVER
1
AC1015
9
$DWGCODEPAGE
3
ANSI_1251
9
$HANDSEED
5
19E
9
$ANGBASE
50
0.0
9
$ANGDIR
70
0
9
$ATTMODE
70
1
9
$AUNITS
70
0
9
$AUPREC
70
0
9
$CECOLOR
62
256
9
$CELTSCALE
40
1.0
9
$CELTYPE
6
ByLayer
9
$CELWEIGHT
370
-1
9
$CLAYER
8
0
9
$CMLJUST
70
0
9
$CMLSCALE
40
1.0
9
$CMLSTYLE
2
Standard
9
$DIMSTYLE
2
Standard
9
$TEXTSIZE
40
0.2
9
$TEXTSTYLE
7
Standard
9
$LUNITS
70
2
9
$LUPREC
70
4
9
$MIRRTEXT
70
0
9
$EXTNAMES
290
1
9
$INSBASE
10
0.0
20
0.0
30
0.0
9
$INSUNITS
70
4
9
$LTSCALE
40
1.0
9
$LWDISPLAY
290
0
9
$PDMODE
70
0
9
$PDSIZE
40
0.0
9
$PLINEGEN
70
0
9
$PSLTSCALE
70
1
9
$SPLINESEGS
70
6
9
$SURFU
70
6
9
$SURFV
70
6
9
$TDCREATE
40
2460693.6449537
9
$TDUCREATE
40
2460693.5199537
9
$TDUPDATE
40
2460693.6449537
9
$TDUUPDATE
40
2460693.5199537
9
$TDINDWG
40
0.0
9
$UCSORG
10
0.0
20
0.0
30
0.0
9
$UCSXDIR
10
1.0
20
0.0
30
0.0
9
$UCSYDIR
10
0.0
20
1.0
30
0.0
9
$DIMADEC
70
0
9
$DIMALT
70
0
9
$DIMALTD
70
2
9
$DIMALTF
40
25.4
9
$DIMALTRND
40
0.0
9
$DIMALTTD
70
2
9
$DIMALTTZ
70
0
9
$DIMALTU
70
2
9
$DIMALTZ
70
0
9
$DIMAPOST
1

9
$DIMATFIT
70
3
9
$DIMAUNIT
70
0
9
$DIMASZ
40
0.18
9
$DIMAZIN
70
3
9
$DIMSAH
70
0
9
$DIMBLK
1

9
$DIMLDRBLK
1

9
$DIMCEN
40
0.09
9
$DIMCLRD
70
0
9
$DIMCLRE
70
0
9
$DIMCLRT
70
0
9
$DIMDEC
70
4
9
$DIMDLE
40
0.0
9
$DIMDLI
40
0.38
9
$DIMDSEP
70
46
9
$DIMEXE
40
0.18
9
$DIMEXO
40
0.0625
9
$DIMFXLON
70
0
9
$DIMFXL
40
1.0
9
$DIMGAP
40
0.09
9
$DIMJUST
70
0
9
$DIMLFAC
40
1.0
9
$DIMLUNIT
70
2
9
$DIMLWD
70
-2
9
$DIMLWE
70
-2
9
$DIMPOST
1

9
$DIMRND
40
0.0
9
$DIMSCALE
40
1.0
9
$DIMSD1
70
0
9
$DIMSD2
70
0
9
$DIMSE1
70
0
9
$DIMSE2
70
0
9
$DIMSOXD
70
0
9
$DIMTAD
70
0
9
$DIMTDEC
70
4
9
$DIMTFAC
40
1.0
9
$DIMTIH
70
0
9
$DIMTIX
70
0
9
$DIMTM
40
0.0
9
$DIMTMOVE
70
0
9
$DIMTOFL
70
0
9
$DIMTOH
70
0
9
$DIMTOL
70
0
9
$DIMLIM
70
0
9
$DIMTOLJ
70
1
9
$DIMTP
40
0.0
9
$DIMTXT
40
0.18
9
$DIMTXTDIRECTION
70
0
9
$DIMTZIN
70
0
9
$DIMZIN
70
0
9
$DIMFRAC
70
0
9
$DIMLTYPE
6
ByBlock
9
$DIMLTEX1
6
ByBlock
9
$DIMLTEX2
6
ByBlock
9
$EXTMIN
10
0.0
20
0.0
30
0.0
9
$EXTMAX
10
1042.01448065871
20
792.014480654838
30
0.0
9
$LIMMIN
10
0.0
20
0.0
9
$LIMMAX
10
1042.01448065871
20
792.014480654838
9
$ORTHOMODE
70
0
9
$REGENMODE
70
1
9
$FILLMODE
70
1
9
$QTEXTMODE
70
0
9
$TRACEWID
40
0.05
9
$DISPSILH
70
0
9
$SKETCHINC
40
0.1
9
$FILLETRAD
40
0.0
9
$MENU
1
.
9
$ELEVATION
40
0.0
9
$PELEVATION
40
0.0
9
$THICKNESS
40
0.0
9
$LIMCHECK
70
0
9
$CHAMFERA
40
0.0
9
$CHAMFERB
40
0.0
9
$CHAMFERC
40
0.0
9
$CHAMFERD
40
0.0
9
$SKPOLY
70
0
9
$TDUSRTIMER
40
0.0
9
$USRTIMER
70
1
9
$PLINEWID
40
0.0
9
$SPLFRAME
70
0
9
$SPLINETYPE
70
6
9
$SURFTAB1
70
6
9
$SURFTAB2
70
6
9
$SURFTYPE
70
6
9
$UCSBASE
2

9
$UCSNAME
2

9
$UCSORTHOREF
2

9
$UCSORTHOVIEW
70
0
9
$UCSORGTOP
10
0.0
20
0.0
30
0.0
9
$UCSORGBOTTOM
10
0.0
20
0.0
30
0.0
9
$UCSORGLEFT
10
0.0
20
0.0
30
0.0
9
$UCSORGRIGHT
10
0.0
20
0.0
30
0.0
9
$UCSORGFRONT
10
0.0
20
0.0
30
0.0
9
$UCSORGBACK
10
0.0
20
0.0
30
0.0
9
$PUCSBASE
2

9
$PUCSNAME
2

9
$PUCSORG
10
0.0
20
0.0
30
0.0
9
$PUCSXDIR
10
1.0
20
0.0
30
0.0
9
$PUCSYDIR
10
0.0
20
1.0
30
0.0
9
$PUCSORTHOREF
2

9
$PUCSORTHOVIEW
70
0
9
$PUCSORGTOP
10
0.0
20
0.0
30
0.0
9
$PUCSORGBOTTOM
10
0.0
20
0.0
30
0.0
9
$PUCSORGLEFT
10
0.0
20
0.0
30
0.0
9
$PUCSORGRIGHT
10
0.0
20
0.0
30
0.0
9
$PUCSORGFRONT
10
0.0
20
0.0
30
0.0
9
$PUCSORGBACK
10
0.0
20
0.0
30
0.0
9
$USERI1
70
0
9
$USERI2
70
0
9
$USERI3
70
0
9
$USERI4
70
0
9
$USERI5
70
0
9
$USERR1
40
0.0
9
$USERR2
40
0.0
9
$USERR3
40
0.0
9
$USERR4
40
0.0
9
$USERR5
40
0.0
9
$WORLDVIEW
70
1
9
$SHADEDGE
70
3
9
$SHADEDIF
70
70
9
$TILEMODE
70
1
9
$MAXACTVP
70
64
9
$PINSBASE
10
0.0
20
0.0
30
0.0
9
$PLIMCHECK
70
0
9
$PEXTMIN
10
0.0
20
0.0
30
0.0
9
$PEXTMAX
10
1042.01448065871
20
792.014480654838
30
0.0
9
$PLIMMIN
10
0.0
20
0.0
9
$PLIMMAX
10
1042.01448065871
20
792.014480654838
9
$UNITMODE
70
0
9
$VISRETAIN
70
1
9
$TREEDEPTH
70
3020
9
$PROXYGRAPHICS
70
1
9
$MEASUREMENT
70
1
9
$ENDCAPS
280
0
9
$JOINSTYLE
280
0
9
$HYPERLINKBASE
1

9
$STYLESHEET
1

9
$XEDIT
290
1
9
$CEPSNTYPE
380
0
9
$PSTYLEMODE
290
1
9
$FINGERPRINTGUID
2
{E269DF30-9E15-2546-A168-E06931BD10ED}
9
$VERSIONGUID
2
{EBDAE456-26A7-134B-B2ED-181D18EDEC7D}
9
$PSVPSCALE
40
0.0
9
$OLESTARTUP
290
0
0
ENDSEC
0
SECTION
2
CLASSES
0
CLASS
1
RASTERVARIABLES
2
AcDbRasterVariables
3
ISM
90
0
280
0
281
0
0
ENDSEC
0
SECTION
2
TABLES
0
TABLE
2
APPID
5
9
330
0
100
AcDbSymbolTable
70
7
0
APPID
5
56
330
9
100
AcDbSymbolTableRecord
100
AcDbRegAppTableRecord
2
ACAD
70
0
0
APPID
5
5E
330
9
100
AcDbSymbolTableRecord
100
AcDbRegAppTableRecord
2
AcadAnnotative
70
0
0
APPID
5
17D
330
9
100
AcDbSymbolTableRecord
100
AcDbRegAppTableRecord
2
ACAD_MLEADERVER
70
0
0
APPID
5
198
330
9
100
AcDbSymbolTableRecord
100
AcDbRegAppTableRecord
2
AcCmTransparency
70
0
0
APPID
5
199
330
9
100
AcDbSymbolTableRecord
100
AcDbRegAppTableRecord
2
AcAecLayerStandard
70
0
0
APPID
5
19A
330
9
100
AcDbSymbolTableRecord
100
AcDbRegAppTableRecord
2
GradientColor1ACI
70
0
0
APPID
5
19B
330
9
100
AcDbSymbolTableRecord
100
AcDbRegAppTableRecord
2
GradientColor2ACI
70
0
0
ENDTAB
0
TABLE
2
VPORT
5
8
330
0
100
AcDbSymbolTable
70
1
0
VPORT
5
18E
330
8
100
AcDbSymbolTableRecord
100
AcDbViewportTableRecord
2
*Active
70
0
10
0.0
20
0.0
11
1.0
21
1.0
12
255.880529979718
22
130.880529979718
13
0.0
23
0.0
14
0.5
24
0.5
15
10.0
25
10.0
16
0.0
26
0.0
36
1.0
17
0.0
27
0.0
37
0.0
40
562.936
41
1.0
75
0
76
1
0
ENDTAB
0
TABLE
2
LTYPE
5
5
330
0
100
AcDbSymbolTable
70
48
0
LTYPE
5
5B
330
5
100
AcDbSymbolTableRecord
100
AcDbLinetypeTableRecord
2
ByBlock
70
0
3

72
65
73
0
40
0.0
0
LTYPE
5
5C
330
5
100
AcDbSymbolTableRecord
100
AcDbLinetypeTableRecord
2
ByLayer
70
0
3

72
65
73
0
40
0.0
0
LTYPE
5
5D
330
5
100
AcDbSymbolTableRecord
100
AcDbLinetypeTableRecord
2
Continuous
70
0
3
Solid line
72
65
73
0
40
0.0
0
LTYPE
5
78
330
5
100
AcDbSymbolTableRecord
100
AcDbLinetypeTableRecord
2
BORDER
70
0
3
Border __ __ . __ __ . __ __ . __ __ . __ __ .
72
65
73
6
40
1.75
49
0.5
74
0
49
-0.25
74
0
49
0.5
74
0
49
-0.25
74
0
49
0.0
74
0
49
-0.25
74
0
0
LTYPE
5
79
330
5
100
AcDbSymbolTableRecord
100
AcDbLinetypeTableRecord
2
BORDER2
70
0
3
Border (.5x) __.__.__.__.__.__.__.__.__.__.__.
72
65
73
6
40
0.875
49
0.25
74
0
49
-0.125
74
0
49
0.25
74
0
49
-0.125
74
0
49
0.0
74
0
49
-0.125
74
0
0
LTYPE
5
7A
330
5
100
AcDbSymbolTableRecord
100
AcDbLinetypeTableRecord
2
BORDERX2
70
0
3
Border (2x) ____  ____  .  ____  ____  .  ___
72
65
73
6
40
3.5
49
1.0
74
0
49
-0.5
74
0
49
1.0
74
0
49
-0.5
74
0
49
0.0
74
0
49
-0.5
74
0
0
LTYPE
5
7B
330
5
100
AcDbSymbolTableRecord
100
AcDbLinetypeTableRecord
2
CENTER
70
0
3
Center ____ _ ____ _ ____ _ ____ _ ____ _ ____
72
65
73
4
40
2.0
49
1.25
74
0
49
-0.25
74
0
49
0.25
74
0
49
-0.25
74
0
0
LTYPE
5
7C
330
5
100
AcDbSymbolTableRecord
100
AcDbLinetypeTableRecord
2
CENTER2
70
0
3
Center (.5x) ___ _ ___ _ ___ _ ___ _ ___ _ ___
72
65
73
4
40
1.125
49
0.75
74
0
49
-0.125
74
0
49
0.125
74
0
49
-0.125
74
0
0
LTYPE
5
7D
330
5
100
AcDbSymbolTableRecord
100
AcDbLinetypeTableRecord
2
CENTERX2
70
0
3
Center (2x) ________  __  ________  __  _____
72
65
73
4
40
4.0
49
2.5
74
0
49
-0.5
74
0
49
0.5
74
0
49
-0.5
74
0
0
LTYPE
5
7E
330
5
100
AcDbSymbolTableRecord
100
AcDbLinetypeTableRecord
2
DASHDOT
70
0
3
Dash dot __ . __ . __ . __ . __ . __ . __ . __
72
65
73
4
40
1.0
49
0.5
74
0
49
-0.25
74
0
49
0.0
74
0
49
-0.25
74
0
0
LTYPE
5
7F
330
5
100
AcDbSymbolTableRecord
100
AcDbLinetypeTableRecord
2
DASHDOT2
70
0
3
Dash dot (.5x) _._._._._._._._._._._._._._._.
72
65
73
4
40
0.5
49
0.25
74
0
49
-0.125
74
0
49
0.0
74
0
49
-0.125
74
0
0
LTYPE
5
80
330
5
100
AcDbSymbolTableRecord
100
AcDbLinetypeTableRecord
2
DASHDOTX2
70
0
3
Dash dot (2x) ____  .  ____  .  ____  .  ___
72
65
73
4
40
2.0
49
1.0
74
0
49
-0.5
74
0
49
0.0
74
0
49
-0.5
74
0
0
LTYPE
5
81
330
5
100
AcDbSymbolTableRecord
100
AcDbLinetypeTableRecord
2
DASHED
70
0
3
Dashed __ __ __ __ __ __ __ __ __ __ __ __ __ _
72
65
73
2
40
0.75
49
0.5
74
0
49
-0.25
74
0
0
LTYPE
5
82
330
5
100
AcDbSymbolTableRecord
100
AcDbLinetypeTableRecord
2
DASHED2
70
0
3
Dashed (.5x) _ _ _ _ _ _ _ _ _ _ _ _ _ _ _ _ _
72
65
73
2
40
0.375
49
0.25
74
0
49
-0.125
74
0
0
LTYPE
5
83
330
5
100
AcDbSymbolTableRecord
100
AcDbLinetypeTableRecord
2
DASHEDX2
70
0
3
Dashed (2x) ____  ____  ____  ____  ____  ___
72
65
73
2
40
1.5
49
1.0
74
0
49
-0.5
74
0
0
LTYPE
5
84
330
5
100
AcDbSymbolTableRecord
100
AcDbLinetypeTableRecord
2
DIVIDE
70
0
3
Divide ____ . . ____ . . ____ . . ____ . . ____
72
65
73
6
40
1.25
49
0.5
74
0
49
-0.25
74
0
49
0.0
74
0
49
-0.25
74
0
49
0.0
74
0
49
-0.25
74
0
0
LTYPE
5
85
330
5
100
AcDbSymbolTableRecord
100
AcDbLinetypeTableRecord
2
DIVIDE2
70
0
3
Divide (.5x) __..__..__..__..__..__..__..__.._
72
65
73
6
40
0.625
49
0.25
74
0
49
-0.125
74
0
49
0.0
74
0
49
-0.125
74
0
49
0.0
74
0
49
-0.125
74
0
0
LTYPE
5
86
330
5
100
AcDbSymbolTableRecord
100
AcDbLinetypeTableRecord
2
DIVIDEX2
70
0
3
Divide (2x) ________  .  .  ________  .  .  _
72
65
73
6
40
2.5
49
1.0
74
0
49
-0.5
74
0
49
0.0
74
0
49
-0.5
74
0
49
0.0
74
0
49
-0.5
74
0
0
LTYPE
5
87
330
5
100
AcDbSymbolTableRecord
100
AcDbLinetypeTableRecord
2
DOT
70
0
3
Dot . . . . . . . . . . . . . . . . . . . . . .
72
65
73
2
40
0.25
49
0.0
74
0
49
-0.25
74
0
0
LTYPE
5
88
330
5
100
AcDbSymbolTableRecord
100
AcDbLinetypeTableRecord
2
DOT2
70
0
3
Dot (.5x) .....................................
72
65
73
2
40
0.125
49
0.0
74
0
49
-0.125
74
0
0
LTYPE
5
89
330
5
100
AcDbSymbolTableRecord
100
AcDbLinetypeTableRecord
2
DOTX2
70
0
3
Dot (2x) .  .  .  .  .  .  .  .  .  .  .  .  . 
72
65
73
2
40
0.5
49
0.0
74
0
49
-0.5
74
0
0
LTYPE
5
8A
330
5
100
AcDbSymbolTableRecord
100
AcDbLinetypeTableRecord
2
HIDDEN
70
0
3
Hidden __ __ __ __ __ __ __ __ __ __ __ __ __ _
72
65
73
2
40
0.375
49
0.25
74
0
49
-0.125
74
0
0
LTYPE
5
8B
330
5
100
AcDbSymbolTableRecord
100
AcDbLinetypeTableRecord
2
HIDDEN2
70
0
3
Hidden (.5x) _ _ _ _ _ _ _ _ _ _ _ _ _ _ _ _ _
72
65
73
2
40
0.1875
49
0.125
74
0
49
-0.0625
74
0
0
LTYPE
5
8C
330
5
100
AcDbSymbolTableRecord
100
AcDbLinetypeTableRecord
2
HIDDENX2
70
0
3
Hidden (2x) ____ ____ ____ ____ ____ ____ ____
72
65
73
2
40
0.75
49
0.5
74
0
49
-0.25
74
0
0
LTYPE
5
8D
330
5
100
AcDbSymbolTableRecord
100
AcDbLinetypeTableRecord
2
PHANTOM
70
0
3
Phantom ______  __  __  ______  __  __  ______
72
65
73
6
40
2.5
49
1.25
74
0
49
-0.25
74
0
49
0.25
74
0
49
-0.25
74
0
49
0.25
74
0
49
-0.25
74
0
0
LTYPE
5
8E
330
5
100
AcDbSymbolTableRecord
100
AcDbLinetypeTableRecord
2
PHANTOM2
70
0
3
Phantom (.5x) ___ _ _ ___ _ _ ___ _ _ ___ _ _
72
65
73
6
40
1.25
49
0.625
74
0
49
-0.125
74
0
49
0.125
74
0
49
-0.125
74
0
49
0.125
74
0
49
-0.125
74
0
0
LTYPE
5
8F
330
5
100
AcDbSymbolTableRecord
100
AcDbLinetypeTableRecord
2
PHANTOMX2
70
0
3
Phantom (2x) ____________    ____    ____   _
72
65
73
6
40
5.0
49
2.5
74
0
49
-0.5
74
0
49
0.5
74
0
49
-0.5
74
0
49
0.5
74
0
49
-0.5
74
0
0
LTYPE
5
90
330
5
100
AcDbSymbolTableRecord
100
AcDbLinetypeTableRecord
2
ACAD_ISO02W100
70
0
3
ISO dash __ __ __ __ __ __ __ __ __ __ __ __ __
72
65
73
2
40
15.0
49
12.0
74
0
49
-3.0
74
0
0
LTYPE
5
91
330
5
100
AcDbSymbolTableRecord
100
AcDbLinetypeTableRecord
2
ACAD_ISO03W100
70
0
3
ISO dash space __    __    __    __    __    __
72
65
73
2
40
30.0
49
12.0
74
0
49
-18.0
74
0
0
LTYPE
5
92
330
5
100
AcDbSymbolTableRecord
100
AcDbLinetypeTableRecord
2
ACAD_ISO04W100
70
0
3
ISO long-dash dot ____ . ____ . ____ . ____ . _
72
65
73
4
40
30.0
49
24.0
74
0
49
-3.0
74
0
49
0.0
74
0
49
-3.0
74
0
0
LTYPE
5
93
330
5
100
AcDbSymbolTableRecord
100
AcDbLinetypeTableRecord
2
ACAD_ISO05W100
70
0
3
ISO long-dash double-dot ____ .. ____ .. ____ .
72
65
73
6
40
33.0
49
24.0
74
0
49
-3.0
74
0
49
0.0
74
0
49
-3.0
74
0
49
0.0
74
0
49
-3.0
74
0
0
LTYPE
5
94
330
5
100
AcDbSymbolTableRecord
100
AcDbLinetypeTableRecord
2
ACAD_ISO06W100
70
0
3
ISO long-dash triple-dot ____ ... ____ ... ____
72
65
73
8
40
36.0
49
24.0
74
0
49
-3.0
74
0
49
0.0
74
0
49
-3.0
74
0
49
0.0
74
0
49
-3.0
74
0
49
0.0
74
0
49
-3.0
74
0
0
LTYPE
5
95
330
5
100
AcDbSymbolTableRecord
100
AcDbLinetypeTableRecord
2
ACAD_ISO07W100
70
0
3
ISO dot . . . . . . . . . . . . . . . . . . . .
72
65
73
2
40
3.0
49
0.0
74
0
49
-3.0
74
0
0
LTYPE
5
96
330
5
100
AcDbSymbolTableRecord
100
AcDbLinetypeTableRecord
2
ACAD_ISO08W100
70
0
3
ISO long-dash short-dash ____ __ ____ __ ____ _
72
65
73
4
40
36.0
49
24.0
74
0
49
-3.0
74
0
49
6.0
74
0
49
-3.0
74
0
0
LTYPE
5
97
330
5
100
AcDbSymbolTableRecord
100
AcDbLinetypeTableRecord
2
ACAD_ISO09W100
70
0
3
ISO long-dash double-short-dash ____ __ __ ____
72
65
73
6
40
45.0
49
24.0
74
0
49
-3.0
74
0
49
6.0
74
0
49
-3.0
74
0
49
6.0
74
0
49
-3.0
74
0
0
LTYPE
5
98
330
5
100
AcDbSymbolTableRecord
100
AcDbLinetypeTableRecord
2
ACAD_ISO10W100
70
0
3
ISO dash dot __ . __ . __ . __ . __ . __ . __ .
72
65
73
4
40
18.0
49
12.0
74
0
49
-3.0
74
0
49
0.0
74
0
49
-3.0
74
0
0
LTYPE
5
99
330
5
100
AcDbSymbolTableRecord
100
AcDbLinetypeTableRecord
2
ACAD_ISO11W100
70
0
3
ISO double-dash dot __ __ . __ __ . __ __ . __ 
72
65
73
6
40
33.0
49
12.0
74
0
49
-3.0
74
0
49
12.0
74
0
49
-3.0
74
0
49
0.0
74
0
49
-3.0
74
0
0
LTYPE
5
9A
330
5
100
AcDbSymbolTableRecord
100
AcDbLinetypeTableRecord
2
ACAD_ISO12W100
70
0
3
ISO dash double-dot __ . . __ . . __ . . __ . .
72
65
73
6
40
21.0
49
12.0
74
0
49
-3.0
74
0
49
0.0
74
0
49
-3.0
74
0
49
0.0
74
0
49
-3.0
74
0
0
LTYPE
5
9B
330
5
100
AcDbSymbolTableRecord
100
AcDbLinetypeTableRecord
2
ACAD_ISO13W100
70
0
3
ISO double-dash double-dot __ __ . . __ __ . . 
72
65
73
8
40
36.0
49
12.0
74
0
49
-3.0
74
0
49
12.0
74
0
49
-3.0
74
0
49
0.0
74
0
49
-3.0
74
0
49
0.0
74
0
49
-3.0
74
0
0
LTYPE
5
9C
330
5
100
AcDbSymbolTableRecord
100
AcDbLinetypeTableRecord
2
ACAD_ISO14W100
70
0
3
ISO dash triple-dot __ . . . __ . . . __ . . . 
72
65
73
8
40
24.0
49
12.0
74
0
49
-3.0
74
0
49
0.0
74
0
49
-3.0
74
0
49
0.0
74
0
49
-3.0
74
0
49
0.0
74
0
49
-3.0
74
0
0
LTYPE
5
9D
330
5
100
AcDbSymbolTableRecord
100
AcDbLinetypeTableRecord
2
ACAD_ISO15W100
70
0
3
ISO double-dash triple-dot __ __ . . . __ __ . 
72
65
73
10
40
39.0
49
12.0
74
0
49
-3.0
74
0
49
12.0
74
0
49
-3.0
74
0
49
0.0
74
0
49
-3.0
74
0
49
0.0
74
0
49
-3.0
74
0
49
0.0
74
0
49
-3.0
74
0
0
LTYPE
5
A0
330
5
100
AcDbSymbolTableRecord
100
AcDbLinetypeTableRecord
2
FENCELINE1
70
0
3
Fenceline circle ----0-----0----0-----0----0---
72
65
73
3
40
1.35
49
0.25
74
0
49
-0.1
74
0
49
1.0
74
0
0
LTYPE
5
A1
330
5
100
AcDbSymbolTableRecord
100
AcDbLinetypeTableRecord
2
FENCELINE2
70
0
3
Fenceline square ----[]-----[]----[]-----[]----
72
65
73
3
40
1.35
49
0.25
74
0
49
-0.1
74
0
49
1.0
74
0
0
LTYPE
5
A2
330
5
100
AcDbSymbolTableRecord
100
AcDbLinetypeTableRecord
2
TRACKS
70
0
3
Tracks -|-|-|-|-|-|-|-|-|-|-|-|-|-|-|-|-|-|-|-|
72
65
73
1
40
0.15
49
0.15
74
0
0
LTYPE
5
A3
330
5
100
AcDbSymbolTableRecord
100
AcDbLinetypeTableRecord
2
BATTING
70
0
3
Batting SSSSSSSSSSSSSSSSSSSSSSSSSSSSSSSSSSSSSSS
72
65
73
2
40
0.1001
49
0.0001
74
0
49
-0.1
74
0
0
LTYPE
5
A4
330
5
100
AcDbSymbolTableRecord
100
AcDbLinetypeTableRecord
2
HOT_WATER_SUPPLY
70
0
3
Hot water supply ---- HW ---- HW ---- HW ----
72
65
73
3
40
0.9
49
0.5
74
0
49
-0.2
74
2
75
0
340
55
46
0.1
50
0.0
44
-0.1
45
-0.05
9
HW
49
-0.2
74
0
0
LTYPE
5
A5
330
5
100
AcDbSymbolTableRecord
100
AcDbLinetypeTableRecord
2
GAS_LINE
70
0
3
Gas line ----GAS----GAS----GAS----GAS----GAS---
72
65
73
3
40
0.95
49
0.5
74
0
49
-0.2
74
2
75
0
340
55
46
0.1
50
0.0
44
-0.1
45
-0.05
9
GAS
49
-0.25
74
0
0
LTYPE
5
A6
330
5
100
AcDbSymbolTableRecord
100
AcDbLinetypeTableRecord
2
ZIGZAG
70
0
3
Zig zag /\/\/\/\/\/\/\/\/\/\/\/\/\/\/\/\/\/\/\/
72
65
73
2
40
0.2001
49
0.0001
74
0
49
-0.2
74
0
0
ENDTAB
0
TABLE
2
LAYER
5
2
102
{ACAD_XDICTIONARY
360
18F
102
}
330
0
100
AcDbSymbolTable
70
3
0
LAYER
5
54
330
2
100
AcDbSymbolTableRecord
100
AcDbLayerTableRecord
2
0
70
0
62
7
6
Continuous
290
1
370
-3
390
0
0
LAYER
5
A7
330
2
100
AcDbSymbolTableRecord
100
AcDbLayerTableRecord
2
IV_INTERIOR_PROFILES
70
0
62
7
6
Continuous
290
1
370
50
390
0
0
LAYER
5
A8
330
2
100
AcDbSymbolTableRecord
100
AcDbLayerTableRecord
2
IV_OUTER_PROFILE
70
0
62
7
6
Continuous
290
1
370
50
390
0
0
ENDTAB
0
TABLE
2
STYLE
5
3
330
0
100
AcDbSymbolTable
70
2
0
STYLE
5
55
330
3
100
AcDbSymbolTableRecord
100
AcDbTextStyleTableRecord
2
Standard
3
txt.SHX
70
0
71
0
40
0.0
41
1.0
42
0.0
50
0.0
0
STYLE
5
5A
330
3
100
AcDbSymbolTableRecord
100
AcDbTextStyleTableRecord
2
Annotative
3
txt.SHX
70
0
71
0
40
0.0
41
1.0
42
0.0
50
0.0
1001
AcadAnnotative
1000
AnnotativeData
1002
{
1070
1
1070
1
1002
}
0
STYLE
5
9F
330
190
100
AcDbSymbolTableRecord
100
AcDbTextStyleTableRecord
2

3
ltypeshp.shx
70
1
40
0.0
41
1.0
42
0.0
50
0.0
0
ENDTAB
0
TABLE
2
DIMSTYLE
5
A
330
0
100
AcDbSymbolTable
70
2
100
AcDbDimStyleTable
0
DIMSTYLE
105
58
330
A
100
AcDbSymbolTableRecord
100
AcDbDimStyleTableRecord
2
Standard
3

4

40
1.0
41
0.18
42
0.0625
43
0.38
44
0.18
45
0.0
46
0.0
47
0.0
48
0.0
49
1.0
70
0
71
0
72
0
73
0
74
0
75
0
76
0
77
0
78
0
79
3
140
0.18
141
0.09
143
25.4
144
1.0
146
1.0
147
0.09
148
0.0
170
0
171
2
172
0
174
0
175
0
176
0
177
0
178
0
179
0
271
4
272
4
273
2
274
2
275
0
276
0
277
2
278
46
279
0
280
0
281
0
282
0
283
1
284
0
285
0
286
0
289
3
290
0
294
0
340
55
173
0
345
5B
346
5B
347
5B
371
-2
372
-2
0
DIMSTYLE
105
59
330
A
100
AcDbSymbolTableRecord
100
AcDbDimStyleTableRecord
2
Annotative
3

4

40
1.0
41
0.18
42
0.0625
43
0.38
44
0.18
45
0.0
46
0.0
47
0.0
48
0.0
49
1.0
70
0
71
0
72
0
73
0
74
0
75
0
76
0
77
0
78
0
79
3
140
0.18
141
0.09
143
25.4
144
1.0
146
1.0
147
0.09
148
0.0
170
0
171
2
172
0
174
0
175
0
176
0
177
0
178
0
179
0
271
4
272
4
273
2
274
2
275
0
276
0
277
2
278
46
279
0
280
0
281
0
282
0
283
1
284
0
285
0
286
0
289
3
290
0
294
0
340
55
173
0
345
5B
346
5B
347
5B
371
-2
372
-2
1001
AcadAnnotative
1000
AnnotativeData
1002
{
1070
1
1070
1
1002
}
0
ENDTAB
0
TABLE
2
VIEW
5
6
330
0
100
AcDbSymbolTable
70
0
0
ENDTAB
0
TABLE
2
UCS
5
7
330
0
100
AcDbSymbolTable
70
0
0
ENDTAB
0
TABLE
2
BLOCK_RECORD
5
1
330
0
100
AcDbSymbolTable
70
3
0
BLOCK_RECORD
5
70
330
1
100
AcDbSymbolTableRecord
100
AcDbBlockTableRecord
2
*Model_Space
340
73
0
BLOCK_RECORD
5
6C
330
1
100
AcDbSymbolTableRecord
100
AcDbBlockTableRecord
2
*Paper_Space
340
6F
0
BLOCK_RECORD
5
74
330
1
100
AcDbSymbolTableRecord
100
AcDbBlockTableRecord
2
*Paper_Space0
340
77
0
ENDTAB
0
ENDSEC
0
SECTION
2
BLOCKS
0
BLOCK
5
71
330
70
100
AcDbEntity
67
0
8
0
100
AcDbBlockBegin
2
*Model_Space
70
0
10
0.0
20
0.0
30
0.0
3
*Model_Space
4

0
ENDBLK
5
72
330
70
100
AcDbEntity
8
0
100
AcDbBlockEnd
0
BLOCK
5
6D
330
6C
100
AcDbEntity
67
1
8
0
100
AcDbBlockBegin
2
*Paper_Space
70
0
10
0.0
20
0.0
30
0.0
3
*Paper_Space
4

0
ENDBLK
5
6E
330
6C
100
AcDbEntity
8
0
100
AcDbBlockEnd
0
BLOCK
5
75
330
74
100
AcDbEntity
67
1
8
0
100
AcDbBlockBegin
2
*Paper_Space0
70
0
10
0.0
20
0.0
30
0.0
3
*Paper_Space0
4

0
VIEWPORT
5
197
330
74
100
AcDbEntity
67
1
8
0
62
256
6
ByLayer
370
-1
48
1.0
60
0
100
AcDbViewport
10
0.0
20
0.0
30
0.0
40
297.0
41
210.0
68
1
69
1
12
50.0
22
100.0
13
0.0
23
0.0
14
10.0
24
10.0
15
10.0
25
10.0
16
0.0
26
0.0
36
1.0
17
0.0
27
0.0
37
0.0
42
50.0
43
0.0
44
0.0
45
250.0
50
0.0
51
0.0
72
1000
90
819232
110
0.0
120
0.0
130
0.0
111
1.0
121
0.0
131
0.0
112
0.0
122
1.0
132
0.0
0
ENDBLK
5
76
330
74
100
AcDbEntity
8
0
100
AcDbBlockEnd
0
ENDSEC
0
SECTION
2
ENTITIES
0
VIEWPORT
5
196
330
6C
100
AcDbEntity
67
1
8
0
62
256
6
ByLayer
370
-1
48
1.0
60
0
100
AcDbViewport
10
0.0
20
0.0
30
0.0
40
297.0
41
210.0
68
1
69
1
12
50.0
22
100.0
13
0.0
23
0.0
14
10.0
24
10.0
15
10.0
25
10.0
16
0.0
26
0.0
36
1.0
17
0.0
27
0.0
37
0.0
42
50.0
43
0.0
44
0.0
45
250.0
50
0.0
51
0.0
72
1000
90
819232
110
0.0
120
0.0
130
0.0
111
1.0
121
0.0
131
0.0
112
0.0
122
1.0
132
0.0
0
CIRCLE
5
A9
330
70
100
AcDbEntity
67
0
8
IV_INTERIOR_PROFILES
62
256
6
ByLayer
370
-1
48
1.0
60
0
100
AcDbCircle
10
455.880529979718
20
60.8805299797182
30
0.0
40
6.5
39
0.0
210
0.0
220
0.0
230
1.0
0
CIRCLE
5
AB
330
70
100
AcDbEntity
67
0
8
IV_INTERIOR_PROFILES
62
256
6
ByLayer
370
-1
48
1.0
60
0
100
AcDbCircle
10
455.880529979718
20
200.880529979718
30
0.0
40
6.5
39
0.0
210
0.0
220
0.0
230
1.0
0
CIRCLE
5
AC
330
70
100
AcDbEntity
67
0
8
IV_INTERIOR_PROFILES
62
256
6
ByLayer
370
-1
48
1.0
60
0
100
AcDbCircle
10
455.880529979718
20
130.880529979718
30
0.0
40
6.5
39
0.0
210
0.0
220
0.0
230
1.0
0
CIRCLE
5
AD
330
70
100
AcDbEntity
67
0
8
IV_INTERIOR_PROFILES
62
256
6
ByLayer
370
-1
48
1.0
60
0
100
AcDbCircle
10
55.8805299797181
20
60.8805299797182
30
0.0
40
6.5
39
0.0
210
0.0
220
0.0
230
1.0
0
CIRCLE
5
AE
330
70
100
AcDbEntity
67
0
8
IV_INTERIOR_PROFILES
62
256
6
ByLayer
370
-1
48
1.0
60
0
100
AcDbCircle
10
55.8805299797181
20
200.880529979718
30
0.0
40
6.5
39
0.0
210
0.0
220
0.0
230
1.0
0
CIRCLE
5
AF
330
70
100
AcDbEntity
67
0
8
IV_INTERIOR_PROFILES
62
256
6
ByLayer
370
-1
48
1.0
60
0
100
AcDbCircle
10
55.8805299797181
20
130.880529979718
30
0.0
40
6.5
39
0.0
210
0.0
220
0.0
230
1.0
0
CIRCLE
5
B0
330
70
100
AcDbEntity
67
0
8
IV_INTERIOR_PROFILES
62
256
6
ByLayer
370
-1
48
1.0
60
0
100
AcDbCircle
10
60.8805299797182
20
10.0000001000004
30
0.0
40
6.50000000000001
39
0.0
210
0.0
220
0.0
230
1.0
0
CIRCLE
5
B1
330
70
100
AcDbEntity
67
0
8
IV_INTERIOR_PROFILES
62
256
6
ByLayer
370
-1
48
1.0
60
0
100
AcDbCircle
10
60.8805299797182
20
251.761059859437
30
0.0
40
6.50000000000001
39
0.0
210
0.0
220
0.0
230
1.0
0
CIRCLE
5
B2
330
70
100
AcDbEntity
67
0
8
IV_INTERIOR_PROFILES
62
256
6
ByLayer
370
-1
48
1.0
60
0
100
AcDbCircle
10
450.880529979718
20
10.0000001000004
30
0.0
40
6.50000000000001
39
0.0
210
0.0
220
0.0
230
1.0
0
CIRCLE
5
B3
330
70
100
AcDbEntity
67
0
8
IV_INTERIOR_PROFILES
62
256
6
ByLayer
370
-1
48
1.0
60
0
100
AcDbCircle
10
450.880529979718
20
251.761059859436
30
0.0
40
6.50000000000001
39
0.0
210
0.0
220
0.0
230
1.0
0
CIRCLE
5
B4
330
70
100
AcDbEntity
67
0
8
IV_INTERIOR_PROFILES
62
256
6
ByLayer
370
-1
48
1.0
60
0
100
AcDbCircle
10
255.880529979718
20
10.0000001000004
30
0.0
40
6.50000000000001
39
0.0
210
0.0
220
0.0
230
1.0
0
CIRCLE
5
B5
330
70
100
AcDbEntity
67
0
8
IV_INTERIOR_PROFILES
62
256
6
ByLayer
370
-1
48
1.0
60
0
100
AcDbCircle
10
255.880529979718
20
251.761059859436
30
0.0
40
6.50000000000001
39
0.0
210
0.0
220
0.0
230
1.0
0
LINE
5
B6
330
70
100
AcDbEntity
67
0
8
IV_OUTER_PROFILE
62
256
6
ByLayer
370
-1
48
1.0
60
0
100
AcDbLine
10
475.173423198532
20
261.761059859436
30
0.0
11
475.173423198532
21
232.761059859436
31
0.0
39
0.0
210
0.0
220
0.0
230
1.0
0
ARC
5
B7
330
70
100
AcDbEntity
67
0
8
IV_OUTER_PROFILE
62
256
6
ByLayer
370
-1
48
1.0
60
0
100
AcDbCircle
39
0.0
10
464.527702345069
20
232.757898309114
30
0.0
40
10.6457213229192
210
0.0
220
0.0
230
1.0
100
AcDbArc
50
355.680197612363
51
0.0170156147575185
0
ARC
5
B8
330
70
100
AcDbEntity
67
0
8
IV_OUTER_PROFILE
62
256
6
ByLayer
370
-1
48
1.0
60
0
100
AcDbCircle
39
0.0
10
463.973237008091
20
232.785498362896
30
0.0
40
11.2006994968333
210
0.0
220
0.0
230
1.0
100
AcDbArc
50
351.608931841675
51
355.753053614065
0
ARC
5
B9
330
70
100
AcDbEntity
67
0
8
IV_OUTER_PROFILE
62
256
6
ByLayer
370
-1
48
1.0
60
0
100
AcDbCircle
39
0.0
10
463.200490943603
20
232.880346318926
30
0.0
40
11.9790293988693
210
0.0
220
0.0
230
1.0
100
AcDbArc
50
347.785711201354
51
351.699489960485
0
ARC
5
BA
330
70
100
AcDbEntity
67
0
8
IV_OUTER_PROFILE
62
256
6
ByLayer
370
-1
48
1.0
60
0
100
AcDbCircle
39
0.0
10
462.206038056944
20
233.071919419482
30
0.0
40
12.9915224999115
210
0.0
220
0.0
230
1.0
100
AcDbArc
50
344.229070170488
51
347.887845698588
0
ARC
5
BB
330
70
100
AcDbEntity
67
0
8
IV_OUTER_PROFILE
62
256
6
ByLayer
370
-1
48
1.0
60
0
100
AcDbCircle
39
0.0
10
460.984685190092
20
233.388902533321
30
0.0
40
14.2530776483965
210
0.0
220
0.0
230
1.0
100
AcDbArc
50
340.946166756324
51
344.337218677157
0
ARC
5
BC
330
70
100
AcDbEntity
67
0
8
IV_OUTER_PROFILE
62
256
6
ByLayer
370
-1
48
1.0
60
0
100
AcDbCircle
39
0.0
10
459.529044177213
20
233.859719965785
30
0.0
40
15.7826976033728
210
0.0
220
0.0
230
1.0
100
AcDbArc
50
337.935161001248
51
341.055732251115
0
ARC
5
BD
330
70
100
AcDbEntity
67
0
8
IV_OUTER_PROFILE
62
256
6
ByLayer
370
-1
48
1.0
60
0
100
AcDbCircle
39
0.0
10
457.828979814639
20
234.513192963459
30
0.0
40
17.6037598977241
210
0.0
220
0.0
230
1.0
100
AcDbArc
50
335.187697237457
51
338.042653971683
0
ARC
5
BE
330
70
100
AcDbEntity
67
0
8
IV_OUTER_PROFILE
62
256
6
ByLayer
370
-1
48
1.0
60
0
100
AcDbCircle
39
0.0
10
455.870883693237
20
235.379369086892
30
0.0
40
19.7446191640643
210
0.0
220
0.0
230
1.0
100
AcDbArc
50
332.691138897181
51
335.29068951144
0
ARC
5
BF
330
70
100
AcDbEntity
67
0
8
IV_OUTER_PROFILE
62
256
6
ByLayer
370
-1
48
1.0
60
0
100
AcDbCircle
39
0.0
10
453.677045168226
20
236.468736929566
30
0.0
40
22.1937675075435
210
0.0
220
0.0
230
1.0
100
AcDbArc
50
330.428071356991
51
332.790662283143
0
ARC
5
C0
330
70
100
AcDbEntity
67
0
8
IV_OUTER_PROFILE
62
256
6
ByLayer
370
-1
48
1.0
60
0
100
AcDbCircle
39
0.0
10
449.408041961459
20
238.83209034962
30
0.0
40
27.0730777322654
210
0.0
220
0.0
230
1.0
100
AcDbArc
50
328.560252411851
51
330.536692610174
0
ARC
5
C1
330
70
100
AcDbEntity
67
0
8
IV_OUTER_PROFILE
62
256
6
ByLayer
370
-1
48
1.0
60
0
100
AcDbCircle
39
0.0
10
443.943069423359
20
242.087770320243
30
0.0
40
33.4339803490705
210
0.0
220
0.0
230
1.0
100
AcDbArc
50
327.055921169505
51
328.685057411186
0
ARC
5
C2
330
70
100
AcDbEntity
67
0
8
IV_OUTER_PROFILE
62
256
6
ByLayer
370
-1
48
1.0
60
0
100
AcDbCircle
39
0.0
10
436.557438034701
20
246.77540182015
30
0.0
40
42.1813247383777
210
0.0
220
0.0
230
1.0
100
AcDbArc
50
325.856939504455
51
327.168101192996
0
ARC
5
C3
330
70
100
AcDbEntity
67
0
8
IV_OUTER_PROFILE
62
256
6
ByLayer
370
-1
48
1.0
60
0
100
AcDbCircle
39
0.0
10
423.464784348881
20
255.446967525858
30
0.0
40
57.8845793563958
210
0.0
220
0.0
230
1.0
100
AcDbArc
50
324.082335888781
51
326.026669719015
0
ARC
5
C4
330
70
100
AcDbEntity
67
0
8
IV_OUTER_PROFILE
62
256
6
ByLayer
370
-1
48
1.0
60
0
100
AcDbCircle
39
0.0
10
365.271075680739
20
296.602123273756
30
0.0
40
129.158432544236
210
0.0
220
0.0
230
1.0
100
AcDbArc
50
323.557804315983
51
324.440669647126
0
ARC
5
C5
330
70
100
AcDbEntity
67
0
8
IV_OUTER_PROFILE
62
256
6
ByLayer
370
-1
48
1.0
60
0
100
AcDbCircle
39
0.0
10
463.442109065569
20
526.887770311796
30
0.0
40
520.933712169941
210
0.0
220
0.0
230
1.0
100
AcDbArc
50
215.891316805906
51
216.110209230983
0
ARC
5
C6
330
70
100
AcDbEntity
67
0
8
IV_OUTER_PROFILE
62
256
6
ByLayer
370
-1
48
1.0
60
0
100
AcDbCircle
39
0.0
10
117.087230752006
20
275.565823179981
30
0.0
40
93.0053199040182
210
0.0
220
0.0
230
1.0
100
AcDbArc
50
214.340458487458
51
215.550535904748
0
ARC
5
C7
330
70
100
AcDbEntity
67
0
8
IV_OUTER_PROFILE
62
256
6
ByLayer
370
-1
48
1.0
60
0
100
AcDbCircle
39
0.0
10
81.8316305621647
20
251.160302460667
30
0.0
40
50.1280784525616
210
0.0
220
0.0
230
1.0
100
AcDbArc
50
212.935830891048
51
214.039128411502
0
ARC
5
C8
330
70
100
AcDbEntity
67
0
8
IV_OUTER_PROFILE
62
256
6
ByLayer
370
-1
48
1.0
60
0
100
AcDbCircle
39
0.0
10
72.4692218378166
20
245.008821654371
30
0.0
40
38.925906864649
210
0.0
220
0.0
230
1.0
100
AcDbArc
50
211.42987347286
51
212.829147946451
0
ARC
5
C9
330
70
100
AcDbEntity
67
0
8
IV_OUTER_PROFILE
62
256
6
ByLayer
370
-1
48
1.0
60
0
100
AcDbCircle
39
0.0
10
65.8289826339647
20
240.875630943839
30
0.0
40
31.1047249174518
210
0.0
220
0.0
230
1.0
100
AcDbArc
50
209.591406140088
51
211.311648837889
0
ARC
5
CA
330
70
100
AcDbEntity
67
0
8
IV_OUTER_PROFILE
62
256
6
ByLayer
370
-1
48
1.0
60
0
100
AcDbCircle
39
0.0
10
59.9318891939142
20
237.467488514003
30
0.0
40
24.2938702165613
210
0.0
220
0.0
230
1.0
100
AcDbArc
50
207.311468380869
51
209.469797978994
0
ARC
5
CB
330
70
100
AcDbEntity
67
0
8
IV_OUTER_PROFILE
62
256
6
ByLayer
370
-1
48
1.0
60
0
100
AcDbCircle
39
0.0
10
57.3477980485826
20
236.090584885031
30
0.0
40
21.3661118108534
210
0.0
220
0.0
230
1.0
100
AcDbArc
50
204.807966603414
51
207.210204987965
0
ARC
5
CC
330
70
100
AcDbEntity
67
0
8
IV_OUTER_PROFILE
62
256
6
ByLayer
370
-1
48
1.0
60
0
100
AcDbCircle
39
0.0
10
55.2076820989719
20
235.064794136899
30
0.0
40
18.9931170363288
210
0.0
220
0.0
230
1.0
100
AcDbArc
50
202.061786166053
51
204.707862624806
0
ARC
5
CD
330
70
100
AcDbEntity
67
0
8
IV_OUTER_PROFILE
62
256
6
ByLayer
370
-1
48
1.0
60
0
100
AcDbCircle
39
0.0
10
53.3370796676915
20
234.272986522791
30
0.0
40
16.9621021952314
210
0.0
220
0.0
230
1.0
100
AcDbArc
50
199.052781225586
51
201.956325522053
0
ARC
5
CE
330
70
100
AcDbEntity
67
0
8
IV_OUTER_PROFILE
62
256
6
ByLayer
370
-1
48
1.0
60
0
100
AcDbCircle
39
0.0
10
51.7195646812506
20
233.683726767307
30
0.0
40
15.2408676230059
210
0.0
220
0.0
230
1.0
100
AcDbArc
50
195.772700659994
51
198.94391390652
0
ARC
5
CF
330
70
100
AcDbEntity
67
0
8
IV_OUTER_PROFILE
62
256
6
ByLayer
370
-1
48
1.0
60
0
100
AcDbCircle
39
0.0
10
50.3428047612068
20
233.267482235933
30
0.0
40
13.8028268072919
210
0.0
220
0.0
230
1.0
100
AcDbArc
50
192.219715680992
51
195.663368449934
0
ARC
5
D0
330
70
100
AcDbEntity
67
0
8
IV_OUTER_PROFILE
62
256
6
ByLayer
370
-1
48
1.0
60
0
100
AcDbCircle
39
0.0
10
49.1976785652805
20
232.995639464565
30
0.0
40
12.6261285629822
210
0.0
220
0.0
230
1.0
100
AcDbArc
50
188.400838247112
51
192.113960591051
0
ARC
5
D1
330
70
100
AcDbEntity
67
0
8
IV_OUTER_PROFILE
62
256
6
ByLayer
370
-1
48
1.0
60
0
100
AcDbCircle
39
0.0
10
48.2776097727548
20
232.839735799435
30
0.0
40
11.6931715750461
210
0.0
220
0.0
230
1.0
100
AcDbArc
50
184.334249430491
51
188.303765113772
0
ARC
5
D2
330
70
100
AcDbEntity
67
0
8
IV_OUTER_PROFILE
62
256
6
ByLayer
370
-1
48
1.0
60
0
100
AcDbCircle
39
0.0
10
47.5780543052348
20
232.770847376322
30
0.0
40
10.9904219024662
210
0.0
220
0.0
230
1.0
100
AcDbArc
50
180.051024745777
51
184.2517620271
0
LINE
5
D3
330
70
100
AcDbEntity
67
0
8
IV_OUTER_PROFILE
62
256
6
ByLayer
370
-1
48
1.0
60
0
100
AcDbLine
10
36.5876367609046
20
232.761059859437
30
0.0
11
36.5876367609048
21
261.761059859436
31
0.0
39
0.0
210
0.0
220
0.0
230
1.0
0
LINE
5
D4
330
70
100
AcDbEntity
67
0
8
IV_OUTER_PROFILE
62
256
6
ByLayer
370
-1
48
1.0
60
0
100
AcDbLine
10
36.5876367609048
20
261.761059859436
30
0.0
11
475.173423198532
21
261.761059859436
31
0.0
39
0.0
210
0.0
220
0.0
230
1.0
0
LINE
5
D5
330
70
100
AcDbEntity
67
0
8
IV_OUTER_PROFILE
62
256
6
ByLayer
370
-1
48
1.0
60
0
100
AcDbLine
10
36.5876367609047
20
0.0000001000000793
30
0.0
11
36.5876367609046
21
29.0000001000001
31
0.0
39
0.0
210
0.0
220
0.0
230
1.0
0
ARC
5
D6
330
70
100
AcDbEntity
67
0
8
IV_OUTER_PROFILE
62
256
6
ByLayer
370
-1
48
1.0
60
0
100
AcDbCircle
39
0.0
10
47.2333576143422
20
29.0031616503236
30
0.0
40
10.6457213228939
210
0.0
220
0.0
230
1.0
100
AcDbArc
50
175.680197612359
51
180.017015614764
0
ARC
5
D7
330
70
100
AcDbEntity
67
0
8
IV_OUTER_PROFILE
62
256
6
ByLayer
370
-1
48
1.0
60
0
100
AcDbCircle
39
0.0
10
47.7878229513724
20
28.9755615965367
30
0.0
40
11.2006994968603
210
0.0
220
0.0
230
1.0
100
AcDbArc
50
171.608931841678
51
175.753053614059
0
ARC
5
D8
330
70
100
AcDbEntity
67
0
8
IV_OUTER_PROFILE
62
256
6
ByLayer
370
-1
48
1.0
60
0
100
AcDbCircle
39
0.0
10
48.5605690158568
20
28.8807136405058
30
0.0
40
11.9790293988934
210
0.0
220
0.0
230
1.0
100
AcDbArc
50
167.785711201357
51
171.699489960481
0
ARC
5
D9
330
70
100
AcDbEntity
67
0
8
IV_OUTER_PROFILE
62
256
6
ByLayer
370
-1
48
1.0
60
0
100
AcDbCircle
39
0.0
10
49.5550219025136
20
28.6891405399493
30
0.0
40
12.9915224999333
210
0.0
220
0.0
230
1.0
100
AcDbArc
50
164.22907017049
51
167.887845698584
0
ARC
5
DA
330
70
100
AcDbEntity
67
0
8
IV_OUTER_PROFILE
62
256
6
ByLayer
370
-1
48
1.0
60
0
100
AcDbCircle
39
0.0
10
50.7763747694548
20
28.3721574260818
30
0.0
40
14.2530776485125
210
0.0
220
0.0
230
1.0
100
AcDbArc
50
160.94616675634
51
164.337218677146
0
ARC
5
DB
330
70
100
AcDbEntity
67
0
8
IV_OUTER_PROFILE
62
256
6
ByLayer
370
-1
48
1.0
60
0
100
AcDbCircle
39
0.0
10
52.2320157822583
20
27.9013399936376
30
0.0
40
15.7826976034107
210
0.0
220
0.0
230
1.0
100
AcDbArc
50
157.935161001251
51
161.05573225111
0
ARC
5
DC
330
70
100
AcDbEntity
67
0
8
IV_OUTER_PROFILE
62
256
6
ByLayer
370
-1
48
1.0
60
0
100
AcDbCircle
39
0.0
10
53.932080144863
20
27.2478669959497
30
0.0
40
17.6037598977952
210
0.0
220
0.0
230
1.0
100
AcDbArc
50
155.187697237463
51
158.042653971677
0
ARC
5
DD
330
70
100
AcDbEntity
67
0
8
IV_OUTER_PROFILE
62
256
6
ByLayer
370
-1
48
1.0
60
0
100
AcDbCircle
39
0.0
10
55.8901762661705
20
26.3816908725585
30
0.0
40
19.744619164032
210
0.0
220
0.0
230
1.0
100
AcDbArc
50
152.691138897179
51
155.290689511442
0
ARC
5
DE
330
70
100
AcDbEntity
67
0
8
IV_OUTER_PROFILE
62
256
6
ByLayer
370
-1
48
1.0
60
0
100
AcDbCircle
39
0.0
10
58.084014791167
20
25.2923230298945
30
0.0
40
22.1937675074942
210
0.0
220
0.0
230
1.0
100
AcDbArc
50
150.428071356991
51
152.790662283149
0
ARC
5
DF
330
70
100
AcDbEntity
67
0
8
IV_OUTER_PROFILE
62
256
6
ByLayer
370
-1
48
1.0
60
0
100
AcDbCircle
39
0.0
10
62.3530179981272
20
22.9289696097276
30
0.0
40
27.0730777324395
210
0.0
220
0.0
230
1.0
100
AcDbArc
50
148.560252411856
51
150.536692610167
0
ARC
5
E0
330
70
100
AcDbEntity
67
0
8
IV_OUTER_PROFILE
62
256
6
ByLayer
370
-1
48
1.0
60
0
100
AcDbCircle
39
0.0
10
67.8179905362916
20
19.6732896390581
30
0.0
40
33.4339803493239
210
0.0
220
0.0
230
1.0
100
AcDbArc
50
147.055921169511
51
148.685057411178
0
ARC
5
E1
330
70
100
AcDbEntity
67
0
8
IV_OUTER_PROFILE
62
256
6
ByLayer
370
-1
48
1.0
60
0
100
AcDbCircle
39
0.0
10
75.2036219249524
20
14.9856581391424
30
0.0
40
42.1813247386388
210
0.0
220
0.0
230
1.0
100
AcDbArc
50
145.856939504459
51
147.168101192991
0
ARC
5
E2
330
70
100
AcDbEntity
67
0
8
IV_OUTER_PROFILE
62
256
6
ByLayer
370
-1
48
1.0
60
0
100
AcDbCircle
39
0.0
10
88.2962756104829
20
6.31409243362839
30
0.0
40
57.8845793563083
210
0.0
220
0.0
230
1.0
100
AcDbArc
50
144.082335888779
51
146.026669719016
0
ARC
5
E3
330
70
100
AcDbEntity
67
0
8
IV_OUTER_PROFILE
62
256
6
ByLayer
370
-1
48
1.0
60
0
100
AcDbCircle
39
0.0
10
146.489984278424
20
-34.8410633141193
30
0.0
40
129.158432543897
210
0.0
220
0.0
230
1.0
100
AcDbArc
50
143.557804315983
51
144.440669647128
0
ARC
5
E4
330
70
100
AcDbEntity
67
0
8
IV_OUTER_PROFILE
62
256
6
ByLayer
370
-1
48
1.0
60
0
100
AcDbCircle
39
0.0
10
48.3189509067036
20
-265.126710343042
30
0.0
40
520.93371215408
210
0.0
220
0.0
230
1.0
100
AcDbArc
50
35.8913168059032
51
36.1102092309874
0
ARC
5
E5
330
70
100
AcDbEntity
67
0
8
IV_OUTER_PROFILE
62
256
6
ByLayer
370
-1
48
1.0
60
0
100
AcDbCircle
39
0.0
10
394.67382920782
20
-13.8047632202702
30
0.0
40
93.0053199035414
210
0.0
220
0.0
230
1.0
100
AcDbArc
50
34.340458487454
51
35.5505359047499
0
ARC
5
E6
330
70
100
AcDbEntity
67
0
8
IV_OUTER_PROFILE
62
256
6
ByLayer
370
-1
48
1.0
60
0
100
AcDbCircle
39
0.0
10
429.929429397236
20
10.6007574987462
30
0.0
40
50.1280784526043
210
0.0
220
0.0
230
1.0
100
AcDbArc
50
32.9358308910482
51
34.0391284115007
0
ARC
5
E7
330
70
100
AcDbEntity
67
0
8
IV_OUTER_PROFILE
62
256
6
ByLayer
370
-1
48
1.0
60
0
100
AcDbCircle
39
0.0
10
439.291838121494
20
16.7522383049873
30
0.0
40
38.9259068647972
210
0.0
220
0.0
230
1.0
100
AcDbArc
50
31.4298734728619
51
32.8291479464467
0
ARC
5
E8
330
70
100
AcDbEntity
67
0
8
IV_OUTER_PROFILE
62
256
6
ByLayer
370
-1
48
1.0
60
0
100
AcDbCircle
39
0.0
10
445.932077325379
20
20.885429015542
30
0.0
40
31.1047249175599
210
0.0
220
0.0
230
1.0
100
AcDbArc
50
29.5914061400933
51
31.3116488378889
0
ARC
5
E9
330
70
100
AcDbEntity
67
0
8
IV_OUTER_PROFILE
62
256
6
ByLayer
370
-1
48
1.0
60
0
100
AcDbCircle
39
0.0
10
451.829170765453
20
24.2935714453959
30
0.0
40
24.2938702166404
210
0.0
220
0.0
230
1.0
100
AcDbArc
50
27.311468380873
51
29.4697979789907
0
ARC
5
EA
330
70
100
AcDbEntity
67
0
8
IV_OUTER_PROFILE
62
256
6
ByLayer
370
-1
48
1.0
60
0
100
AcDbCircle
39
0.0
10
454.413261910736
20
25.670475074348
30
0.0
40
21.3661118109848
210
0.0
220
0.0
230
1.0
100
AcDbArc
50
24.8079666034223
51
27.2102049879579
0
ARC
5
EB
330
70
100
AcDbEntity
67
0
8
IV_OUTER_PROFILE
62
256
6
ByLayer
370
-1
48
1.0
60
0
100
AcDbCircle
39
0.0
10
456.553377860391
20
26.6962658225064
30
0.0
40
18.9931170364083
210
0.0
220
0.0
230
1.0
100
AcDbArc
50
22.0617861660589
51
24.7078626248007
0
ARC
5
EC
330
70
100
AcDbEntity
67
0
8
IV_OUTER_PROFILE
62
256
6
ByLayer
370
-1
48
1.0
60
0
100
AcDbCircle
39
0.0
10
458.423980291655
20
27.4880734366119
30
0.0
40
16.9621021953268
210
0.0
220
0.0
230
1.0
100
AcDbArc
50
19.052781225593
51
21.956325522044
0
ARC
5
ED
330
70
100
AcDbEntity
67
0
8
IV_OUTER_PROFILE
62
256
6
ByLayer
370
-1
48
1.0
60
0
100
AcDbCircle
39
0.0
10
460.04149527814
20
28.0773331921149
30
0.0
40
15.2408676230545
210
0.0
220
0.0
230
1.0
100
AcDbArc
50
15.7727006600013
51
18.9439139065175
0
ARC
5
EE
330
70
100
AcDbEntity
67
0
8
IV_OUTER_PROFILE
62
256
6
ByLayer
370
-1
48
1.0
60
0
100
AcDbCircle
39
0.0
10
461.418255198233
20
28.4935777235051
30
0.0
40
13.8028268072886
210
0.0
220
0.0
230
1.0
100
AcDbArc
50
12.2197156809902
51
15.6633684499332
0
ARC
5
EF
330
70
100
AcDbEntity
67
0
8
IV_OUTER_PROFILE
62
256
6
ByLayer
370
-1
48
1.0
60
0
100
AcDbCircle
39
0.0
10
462.563381394163
20
28.7654204948726
30
0.0
40
12.6261285629749
210
0.0
220
0.0
230
1.0
100
AcDbArc
50
8.40083824710982
51
12.1139605910509
0
ARC
5
F0
330
70
100
AcDbEntity
67
0
8
IV_OUTER_PROFILE
62
256
6
ByLayer
370
-1
48
1.0
60
0
100
AcDbCircle
39
0.0
10
463.483450186627
20
28.9213241599946
30
0.0
40
11.6931715751015
210
0.0
220
0.0
230
1.0
100
AcDbArc
50
4.33424943050366
51
8.3037651137662
0
ARC
5
F1
330
70
100
AcDbEntity
67
0
8
IV_OUTER_PROFILE
62
256
6
ByLayer
370
-1
48
1.0
60
0
100
AcDbCircle
39
0.0
10
464.183005654213
20
28.9902125831161
30
0.0
40
10.990421902455
210
0.0
220
0.0
230
1.0
100
AcDbArc
50
0.0510247457709871
51
4.25176202709806
0
LINE
5
F2
330
70
100
AcDbEntity
67
0
8
IV_OUTER_PROFILE
62
256
6
ByLayer
370
-1
48
1.0
60
0
100
AcDbLine
10
475.173423198532
20
29.0000001
30
0.0
11
475.173423198532
21
0.0000001000000083
31
0.0
39
0.0
210
0.0
220
0.0
230
1.0
0
LINE
5
F3
330
70
100
AcDbEntity
67
0
8
IV_OUTER_PROFILE
62
256
6
ByLayer
370
-1
48
1.0
60
0
100
AcDbLine
10
475.173423198532
20
0.0000001000000083
30
0.0
11
36.5876367609047
21
0.0000001000000793
31
0.0
39
0.0
210
0.0
220
0.0
230
1.0
0
LINE
5
F4
330
70
100
AcDbEntity
67
0
8
IV_OUTER_PROFILE
62
256
6
ByLayer
370
-1
48
1.0
60
0
100
AcDbLine
10
511.761059859436
20
36.5876367609047
30
0.0
11
482.761059859436
21
36.5876367609045
31
0.0
39
0.0
210
0.0
220
0.0
230
1.0
0
ARC
5
F5
330
70
100
AcDbEntity
67
0
8
IV_OUTER_PROFILE
62
256
6
ByLayer
370
-1
48
1.0
60
0
100
AcDbCircle
39
0.0
10
482.757898309112
20
47.2333576143174
30
0.0
40
10.6457213228691
210
0.0
220
0.0
230
1.0
100
AcDbArc
50
265.680197612352
51
270.017015614768
0
ARC
5
F6
330
70
100
AcDbEntity
67
0
8
IV_OUTER_PROFILE
62
256
6
ByLayer
370
-1
48
1.0
60
0
100
AcDbCircle
39
0.0
10
482.785498362897
20
47.7878229513401
30
0.0
40
11.2006994968279
210
0.0
220
0.0
230
1.0
100
AcDbArc
50
261.608931841669
51
265.753053614061
0
ARC
5
F7
330
70
100
AcDbEntity
67
0
8
IV_OUTER_PROFILE
62
256
6
ByLayer
370
-1
48
1.0
60
0
100
AcDbCircle
39
0.0
10
482.880346318934
20
48.5605690158769
30
0.0
40
11.9790293989139
210
0.0
220
0.0
230
1.0
100
AcDbArc
50
257.785711201359
51
261.699489960476
0
ARC
5
F8
330
70
100
AcDbEntity
67
0
8
IV_OUTER_PROFILE
62
256
6
ByLayer
370
-1
48
1.0
60
0
100
AcDbCircle
39
0.0
10
483.071919419492
20
49.5550219025319
30
0.0
40
12.9915224999523
210
0.0
220
0.0
230
1.0
100
AcDbArc
50
254.229070170491
51
257.887845698578
0
ARC
5
F9
330
70
100
AcDbEntity
67
0
8
IV_OUTER_PROFILE
62
256
6
ByLayer
370
-1
48
1.0
60
0
100
AcDbCircle
39
0.0
10
483.388902533351
20
50.7763747694437
30
0.0
40
14.2530776485009
210
0.0
220
0.0
230
1.0
100
AcDbArc
50
250.946166756339
51
254.337218677147
0
ARC
5
FA
330
70
100
AcDbEntity
67
0
8
IV_OUTER_PROFILE
62
256
6
ByLayer
370
-1
48
1.0
60
0
100
AcDbCircle
39
0.0
10
483.859719965792
20
52.23201578224
30
0.0
40
15.7826976033912
210
0.0
220
0.0
230
1.0
100
AcDbArc
50
247.935161001248
51
251.055732251111
0
ARC
5
FB
330
70
100
AcDbEntity
67
0
8
IV_OUTER_PROFILE
62
256
6
ByLayer
370
-1
48
1.0
60
0
100
AcDbCircle
39
0.0
10
484.513192963472
20
53.9320801448282
30
0.0
40
17.6037598977575
210
0.0
220
0.0
230
1.0
100
AcDbArc
50
245.187697237459
51
248.042653971679
0
ARC
5
FC
330
70
100
AcDbEntity
67
0
8
IV_OUTER_PROFILE
62
256
6
ByLayer
370
-1
48
1.0
60
0
100
AcDbCircle
39
0.0
10
485.37936908687
20
55.8901762661553
30
0.0
40
19.7446191640149
210
0.0
220
0.0
230
1.0
100
AcDbArc
50
242.691138897178
51
245.290689511444
0
ARC
5
FD
330
70
100
AcDbEntity
67
0
8
IV_OUTER_PROFILE
62
256
6
ByLayer
370
-1
48
1.0
60
0
100
AcDbCircle
39
0.0
10
486.468736929465
20
58.0840147910197
30
0.0
40
22.1937675073276
210
0.0
220
0.0
230
1.0
100
AcDbArc
50
240.428071356977
51
242.790662283152
0
ARC
5
FE
330
70
100
AcDbEntity
67
0
8
IV_OUTER_PROFILE
62
256
6
ByLayer
370
-1
48
1.0
60
0
100
AcDbCircle
39
0.0
10
488.832090349629
20
62.3530179979904
30
0.0
40
27.0730777322811
210
0.0
220
0.0
230
1.0
100
AcDbArc
50
238.560252411849
51
240.536692610172
0
ARC
5
FF
330
70
100
AcDbEntity
67
0
8
IV_OUTER_PROFILE
62
256
6
ByLayer
370
-1
48
1.0
60
0
100
AcDbCircle
39
0.0
10
492.08777032039
20
67.817990536313
30
0.0
40
33.433980349348
210
0.0
220
0.0
230
1.0
100
AcDbArc
50
237.055921169515
51
238.685057411181
0
ARC
5
100
330
70
100
AcDbEntity
67
0
8
IV_OUTER_PROFILE
62
256
6
ByLayer
370
-1
48
1.0
60
0
100
AcDbCircle
39
0.0
10
496.775401820054
20
75.2036219245856
30
0.0
40
42.1813247382
210
0.0
220
0.0
230
1.0
100
AcDbArc
50
235.85693950445
51
237.168101192996
0
ARC
5
101
330
70
100
AcDbEntity
67
0
8
IV_OUTER_PROFILE
62
256
6
ByLayer
370
-1
48
1.0
60
0
100
AcDbCircle
39
0.0
10
505.446967525827
20
88.2962756105104
30
0.0
40
57.8845793563414
210
0.0
220
0.0
230
1.0
100
AcDbArc
50
234.08233588878
51
236.026669719016
0
ARC
5
102
330
70
100
AcDbEntity
67
0
8
IV_OUTER_PROFILE
62
256
6
ByLayer
370
-1
48
1.0
60
0
100
AcDbCircle
39
0.0
10
546.602123274508
20
146.48998427974
30
0.0
40
129.158432545521
210
0.0
220
0.0
230
1.0
100
AcDbArc
50
233.55780431599
51
234.440669647124
0
ARC
5
103
330
70
100
AcDbEntity
67
0
8
IV_OUTER_PROFILE
62
256
6
ByLayer
370
-1
48
1.0
60
0
100
AcDbCircle
39
0.0
10
776.887770301607
20
-201.681049092112
30
0.0
40
520.93371215261
210
0.0
220
0.0
230
1.0
100
AcDbArc
50
125.891316805902
51
126.110209230987
0
ARC
5
104
330
70
100
AcDbEntity
67
0
8
IV_OUTER_PROFILE
62
256
6
ByLayer
370
-1
48
1.0
60
0
100
AcDbCircle
39
0.0
10
525.565823179837
20
144.673829207635
30
0.0
40
93.0053199037675
210
0.0
220
0.0
230
1.0
100
AcDbArc
50
124.340458487456
51
125.550535904749
0
ARC
5
105
330
70
100
AcDbEntity
67
0
8
IV_OUTER_PROFILE
62
256
6
ByLayer
370
-1
48
1.0
60
0
100
AcDbCircle
39
0.0
10
501.160302460758
20
179.929429397133
30
0.0
40
50.1280784527273
210
0.0
220
0.0
230
1.0
100
AcDbArc
50
122.935830891049
51
124.039128411499
0
ARC
5
106
330
70
100
AcDbEntity
67
0
8
IV_OUTER_PROFILE
62
256
6
ByLayer
370
-1
48
1.0
60
0
100
AcDbCircle
39
0.0
10
495.00882165436
20
189.291838121637
30
0.0
40
38.9259068646284
210
0.0
220
0.0
230
1.0
100
AcDbArc
50
121.429873472859
51
122.82914794645
0
ARC
5
107
330
70
100
AcDbEntity
67
0
8
IV_OUTER_PROFILE
62
256
6
ByLayer
370
-1
48
1.0
60
0
100
AcDbCircle
39
0.0
10
490.875630943856
20
195.932077325443
30
0.0
40
31.1047249174849
210
0.0
220
0.0
230
1.0
100
AcDbArc
50
119.59140614009
51
121.31164883789
0
ARC
5
108
330
70
100
AcDbEntity
67
0
8
IV_OUTER_PROFILE
62
256
6
ByLayer
370
-1
48
1.0
60
0
100
AcDbCircle
39
0.0
10
487.467488514125
20
201.829170765299
30
0.0
40
24.2938702168159
210
0.0
220
0.0
230
1.0
100
AcDbArc
50
117.311468380885
51
119.469797978986
0
ARC
5
109
330
70
100
AcDbEntity
67
0
8
IV_OUTER_PROFILE
62
256
6
ByLayer
370
-1
48
1.0
60
0
100
AcDbCircle
39
0.0
10
486.090584884964
20
204.413261910988
30
0.0
40
21.3661118107036
210
0.0
220
0.0
230
1.0
100
AcDbArc
50
114.807966603404
51
117.210204987971
0
ARC
5
10A
330
70
100
AcDbEntity
67
0
8
IV_OUTER_PROFILE
62
256
6
ByLayer
370
-1
48
1.0
60
0
100
AcDbCircle
39
0.0
10
485.064794136887
20
206.553377860492
30
0.0
40
18.9931170362991
210
0.0
220
0.0
230
1.0
100
AcDbArc
50
112.061786166051
51
114.707862624808
0
ARC
5
10B
330
70
100
AcDbEntity
67
0
8
IV_OUTER_PROFILE
62
256
6
ByLayer
370
-1
48
1.0
60
0
100
AcDbCircle
39
0.0
10
484.272986522794
20
208.423980291739
30
0.0
40
16.9621021952371
210
0.0
220
0.0
230
1.0
100
AcDbArc
50
109.052781225588
51
111.956325522055
0
ARC
5
10C
330
70
100
AcDbEntity
67
0
8
IV_OUTER_PROFILE
62
256
6
ByLayer
370
-1
48
1.0
60
0
100
AcDbCircle
39
0.0
10
483.683726767305
20
210.041495278192
30
0.0
40
15.2408676229993
210
0.0
220
0.0
230
1.0
100
AcDbArc
50
105.772700659994
51
108.943913906522
0
ARC
5
10D
330
70
100
AcDbEntity
67
0
8
IV_OUTER_PROFILE
62
256
6
ByLayer
370
-1
48
1.0
60
0
100
AcDbCircle
39
0.0
10
483.26748223593
20
211.41825519824
30
0.0
40
13.8028268072812
210
0.0
220
0.0
230
1.0
100
AcDbArc
50
102.219715680991
51
105.663368449936
0
ARC
5
10E
330
70
100
AcDbEntity
67
0
8
IV_OUTER_PROFILE
62
256
6
ByLayer
370
-1
48
1.0
60
0
100
AcDbCircle
39
0.0
10
482.995639464565
20
212.563381394162
30
0.0
40
12.6261285629757
210
0.0
220
0.0
230
1.0
100
AcDbArc
50
98.400838247113
51
102.113960591053
0
ARC
5
10F
330
70
100
AcDbEntity
67
0
8
IV_OUTER_PROFILE
62
256
6
ByLayer
370
-1
48
1.0
60
0
100
AcDbCircle
39
0.0
10
482.839735799435
20
213.483450186686
30
0.0
40
11.6931715750414
210
0.0
220
0.0
230
1.0
100
AcDbArc
50
94.3342494304912
51
98.3037651137742
0
ARC
5
110
330
70
100
AcDbEntity
67
0
8
IV_OUTER_PROFILE
62
256
6
ByLayer
370
-1
48
1.0
60
0
100
AcDbCircle
39
0.0
10
482.770847376322
20
214.183005654198
30
0.0
40
10.9904219024692
210
0.0
220
0.0
230
1.0
100
AcDbArc
50
90.05102474578
51
94.2517620271005
0
LINE
5
111
330
70
100
AcDbEntity
67
0
8
IV_OUTER_PROFILE
62
256
6
ByLayer
370
-1
48
1.0
60
0
100
AcDbLine
10
482.761059859436
20
225.173423198532
30
0.0
11
511.761059859436
21
225.173423198532
31
0.0
39
0.0
210
0.0
220
0.0
230
1.0
0
LINE
5
112
330
70
100
AcDbEntity
67
0
8
IV_OUTER_PROFILE
62
256
6
ByLayer
370
-1
48
1.0
60
0
100
AcDbLine
10
511.761059859436
20
225.173423198532
30
0.0
11
511.761059859436
21
36.5876367609047
31
0.0
39
0.0
210
0.0
220
0.0
230
1.0
0
LINE
5
113
330
70
100
AcDbEntity
67
0
8
IV_OUTER_PROFILE
62
256
6
ByLayer
370
-1
48
1.0
60
0
100
AcDbLine
10
0.0000001000001637
20
225.173423198532
30
0.0
11
29.0000001000002
21
225.173423198532
31
0.0
39
0.0
210
0.0
220
0.0
230
1.0
0
ARC
5
114
330
70
100
AcDbEntity
67
0
8
IV_OUTER_PROFILE
62
256
6
ByLayer
370
-1
48
1.0
60
0
100
AcDbCircle
39
0.0
10
29.0031616503237
20
214.527702345101
30
0.0
40
10.6457213228865
210
0.0
220
0.0
230
1.0
100
AcDbArc
50
85.6801976123559
51
90.0170156147643
0
ARC
5
115
330
70
100
AcDbEntity
67
0
8
IV_OUTER_PROFILE
62
256
6
ByLayer
370
-1
48
1.0
60
0
100
AcDbCircle
39
0.0
10
28.975561596537
20
213.973237008068
30
0.0
40
11.2006994968564
210
0.0
220
0.0
230
1.0
100
AcDbArc
50
81.6089318416761
51
85.753053614058
0
ARC
5
116
330
70
100
AcDbEntity
67
0
8
IV_OUTER_PROFILE
62
256
6
ByLayer
370
-1
48
1.0
60
0
100
AcDbCircle
39
0.0
10
28.8807136405069
20
213.200490943586
30
0.0
40
11.9790293988867
210
0.0
220
0.0
230
1.0
100
AcDbArc
50
77.7857112013546
51
81.6994899604804
0
ARC
5
117
330
70
100
AcDbEntity
67
0
8
IV_OUTER_PROFILE
62
256
6
ByLayer
370
-1
48
1.0
60
0
100
AcDbCircle
39
0.0
10
28.6891405399496
20
212.206038056925
30
0.0
40
12.9915224999313
210
0.0
220
0.0
230
1.0
100
AcDbArc
50
74.229070170489
51
77.887845698583
0
ARC
5
118
330
70
100
AcDbEntity
67
0
8
IV_OUTER_PROFILE
62
256
6
ByLayer
370
-1
48
1.0
60
0
100
AcDbCircle
39
0.0
10
28.3721574260855
20
210.984685189994
30
0.0
40
14.2530776484992
210
0.0
220
0.0
230
1.0
100
AcDbArc
50
70.9461667563377
51
74.3372186771459
0
ARC
5
119
330
70
100
AcDbEntity
67
0
8
IV_OUTER_PROFILE
62
256
6
ByLayer
370
-1
48
1.0
60
0
100
AcDbCircle
39
0.0
10
27.9013399936379
20
209.529044177179
30
0.0
40
15.7826976034095
210
0.0
220
0.0
230
1.0
100
AcDbArc
50
67.9351610012503
51
71.05573225111
0
ARC
5
11A
330
70
100
AcDbEntity
67
0
8
IV_OUTER_PROFILE
62
256
6
ByLayer
370
-1
48
1.0
60
0
100
AcDbCircle
39
0.0
10
27.2478669959571
20
207.828979814591
30
0.0
40
17.6037598977763
210
0.0
220
0.0
230
1.0
100
AcDbArc
50
65.1876972374614
51
68.0426539716785
0
ARC
5
11B
330
70
100
AcDbEntity
67
0
8
IV_OUTER_PROFILE
62
256
6
ByLayer
370
-1
48
1.0
60
0
100
AcDbCircle
39
0.0
10
26.3816908725636
20
205.870883693276
30
0.0
40
19.7446191640203
210
0.0
220
0.0
230
1.0
100
AcDbArc
50
62.6911388971782
51
65.2906895114428
0
ARC
5
11C
330
70
100
AcDbEntity
67
0
8
IV_OUTER_PROFILE
62
256
6
ByLayer
370
-1
48
1.0
60
0
100
AcDbCircle
39
0.0
10
25.2923230299044
20
203.677045168288
30
0.0
40
22.1937675074725
210
0.0
220
0.0
230
1.0
100
AcDbArc
50
60.4280713569887
51
62.7906622831488
0
ARC
5
11D
330
70
100
AcDbEntity
67
0
8
IV_OUTER_PROFILE
62
256
6
ByLayer
370
-1
48
1.0
60
0
100
AcDbCircle
39
0.0
10
22.9289696097436
20
199.408041961336
30
0.0
40
27.0730777324077
210
0.0
220
0.0
230
1.0
100
AcDbArc
50
58.5602524118548
51
60.5366926101678
0
ARC
5
11E
330
70
100
AcDbEntity
67
0
8
IV_OUTER_PROFILE
62
256
6
ByLayer
370
-1
48
1.0
60
0
100
AcDbCircle
39
0.0
10
19.6732896391165
20
193.943069423238
30
0.0
40
33.433980349214
210
0.0
220
0.0
230
1.0
100
AcDbArc
50
57.055921169508
51
58.6850574111811
0
ARC
5
11F
330
70
100
AcDbEntity
67
0
8
IV_OUTER_PROFILE
62
256
6
ByLayer
370
-1
48
1.0
60
0
100
AcDbCircle
39
0.0
10
14.9856581391756
20
186.557438034534
30
0.0
40
42.1813247385788
210
0.0
220
0.0
230
1.0
100
AcDbArc
50
55.8569395044584
51
57.1681011929926
0
ARC
5
120
330
70
100
AcDbEntity
67
0
8
IV_OUTER_PROFILE
62
256
6
ByLayer
370
-1
48
1.0
60
0
100
AcDbCircle
39
0.0
10
6.31409243364091
20
173.464784348971
30
0.0
40
57.8845793562864
210
0.0
220
0.0
230
1.0
100
AcDbArc
50
54.0823358887788
51
56.0266697190159
0
ARC
5
121
330
70
100
AcDbEntity
67
0
8
IV_OUTER_PROFILE
62
256
6
ByLayer
370
-1
48
1.0
60
0
100
AcDbCircle
39
0.0
10
-34.8410633144807
20
115.271075680515
30
0.0
40
129.158432544511
210
0.0
220
0.0
230
1.0
100
AcDbArc
50
53.5578043159847
51
54.4406696471256
0
ARC
5
122
330
70
100
AcDbEntity
67
0
8
IV_OUTER_PROFILE
62
256
6
ByLayer
370
-1
48
1.0
60
0
100
AcDbCircle
39
0.0
10
-265.126710357102
20
463.442109072102
30
0.0
40
520.933712178014
210
0.0
220
0.0
230
1.0
100
AcDbArc
50
305.891316805907
51
306.110209230981
0
ARC
5
123
330
70
100
AcDbEntity
67
0
8
IV_OUTER_PROFILE
62
256
6
ByLayer
370
-1
48
1.0
60
0
100
AcDbCircle
39
0.0
10
-13.8047632206575
20
117.087230752166
30
0.0
40
93.0053199042139
210
0.0
220
0.0
230
1.0
100
AcDbArc
50
304.34045848746
51
305.550535904747
0
ARC
5
124
330
70
100
AcDbEntity
67
0
8
IV_OUTER_PROFILE
62
256
6
ByLayer
370
-1
48
1.0
60
0
100
AcDbCircle
39
0.0
10
10.6007574987098
20
81.8316305622547
30
0.0
40
50.128078452669
210
0.0
220
0.0
230
1.0
100
AcDbArc
50
302.935830891049
51
304.0391284115
0
ARC
5
125
330
70
100
AcDbEntity
67
0
8
IV_OUTER_PROFILE
62
256
6
ByLayer
370
-1
48
1.0
60
0
100
AcDbCircle
39
0.0
10
16.7522383051362
20
72.4692218377048
30
0.0
40
38.9259068645162
210
0.0
220
0.0
230
1.0
100
AcDbArc
50
301.429873472857
51
302.829147946452
0
ARC
5
126
330
70
100
AcDbEntity
67
0
8
IV_OUTER_PROFILE
62
256
6
ByLayer
370
-1
48
1.0
60
0
100
AcDbCircle
39
0.0
10
20.8854290156763
20
65.8289826338324
30
0.0
40
31.1047249172976
210
0.0
220
0.0
230
1.0
100
AcDbArc
50
299.591406140083
51
301.311648837893
0
ARC
5
127
330
70
100
AcDbEntity
67
0
8
IV_OUTER_PROFILE
62
256
6
ByLayer
370
-1
48
1.0
60
0
100
AcDbCircle
39
0.0
10
24.2935714452928
20
59.9318891941714
30
0.0
40
24.2938702168541
210
0.0
220
0.0
230
1.0
100
AcDbArc
50
297.311468380886
51
299.469797978984
0
ARC
5
128
330
70
100
AcDbEntity
67
0
8
IV_OUTER_PROFILE
62
256
6
ByLayer
370
-1
48
1.0
60
0
100
AcDbCircle
39
0.0
10
25.6704750743944
20
57.3477980486059
30
0.0
40
21.366111810879
210
0.0
220
0.0
230
1.0
100
AcDbArc
50
294.807966603416
51
297.210204987963
0
ARC
5
129
330
70
100
AcDbEntity
67
0
8
IV_OUTER_PROFILE
62
256
6
ByLayer
370
-1
48
1.0
60
0
100
AcDbCircle
39
0.0
10
26.6962658225449
20
55.2076820989551
30
0.0
40
18.9931170363103
210
0.0
220
0.0
230
1.0
100
AcDbArc
50
292.061786166053
51
294.707862624808
0
ARC
5
12A
330
70
100
AcDbEntity
67
0
8
IV_OUTER_PROFILE
62
256
6
ByLayer
370
-1
48
1.0
60
0
100
AcDbCircle
39
0.0
10
27.488073436635
20
53.3370796677166
30
0.0
40
16.9621021952581
210
0.0
220
0.0
230
1.0
100
AcDbArc
50
289.05278122559
51
291.956325522052
0
ARC
5
12B
330
70
100
AcDbEntity
67
0
8
IV_OUTER_PROFILE
62
256
6
ByLayer
370
-1
48
1.0
60
0
100
AcDbCircle
39
0.0
10
28.0773331921317
20
51.7195646812444
30
0.0
40
15.2408676229991
210
0.0
220
0.0
230
1.0
100
AcDbArc
50
285.772700659994
51
288.943913906521
0
ARC
5
12C
330
70
100
AcDbEntity
67
0
8
IV_OUTER_PROFILE
62
256
6
ByLayer
370
-1
48
1.0
60
0
100
AcDbCircle
39
0.0
10
28.4935777234946
20
50.3428047612428
30
0.0
40
13.8028268073287
210
0.0
220
0.0
230
1.0
100
AcDbArc
50
282.219715680998
51
285.663368449931
0
ARC
5
12D
330
70
100
AcDbEntity
67
0
8
IV_OUTER_PROFILE
62
256
6
ByLayer
370
-1
48
1.0
60
0
100
AcDbCircle
39
0.0
10
28.7654204948662
20
49.1976785653048
30
0.0
40
12.6261285630066
210
0.0
220
0.0
230
1.0
100
AcDbArc
50
278.400838247117
51
282.113960591049
0
ARC
5
12E
330
70
100
AcDbEntity
67
0
8
IV_OUTER_PROFILE
62
256
6
ByLayer
370
-1
48
1.0
60
0
100
AcDbCircle
39
0.0
10
28.9213241599985
20
48.2776097727779
30
0.0
40
11.6931715750691
210
0.0
220
0.0
230
1.0
100
AcDbArc
50
274.334249430496
51
278.303765113769
0
ARC
5
12F
330
70
100
AcDbEntity
67
0
8
IV_OUTER_PROFILE
62
256
6
ByLayer
370
-1
48
1.0
60
0
100
AcDbCircle
39
0.0
10
28.990212583115
20
47.5780543052228
30
0.0
40
10.9904219024539
210
0.0
220
0.0
230
1.0
100
AcDbArc
50
270.051024745776
51
274.251762027103
0
LINE
5
130
330
70
100
AcDbEntity
67
0
8
IV_OUTER_PROFILE
62
256
6
ByLayer
370
-1
48
1.0
60
0
100
AcDbLine
10
29.0000001
20
36.5876367609049
30
0.0
11
0.0000001000000038
21
36.5876367609048
31
0.0
39
0.0
210
0.0
220
0.0
230
1.0
0
LINE
5
131
330
70
100
AcDbEntity
67
0
8
IV_OUTER_PROFILE
62
256
6
ByLayer
370
-1
48
1.0
60
0
100
AcDbLine
10
0.0000001000000038
20
36.5876367609048
30
0.0
11
0.0000001000001637
21
225.173423198532
31
0.0
39
0.0
210
0.0
220
0.0
230
1.0
0
ARC
5
132
330
70
100
AcDbEntity
67
0
8
IV_OUTER_PROFILE
62
256
6
ByLayer
370
-1
48
1.0
60
0
100
AcDbCircle
39
0.0
10
42.1793074928956
20
42.1793074928956
30
0.0
40
0.505965209765932
210
0.0
220
0.0
230
1.0
100
AcDbArc
50
323.806792694415
51
126.193207305589
0
ARC
5
133
330
70
100
AcDbEntity
67
0
8
IV_OUTER_PROFILE
62
256
6
ByLayer
370
-1
48
1.0
60
0
100
AcDbCircle
39
0.0
10
469.581752466541
20
42.1793074928955
30
0.0
40
0.505965209765754
210
0.0
220
0.0
230
1.0
100
AcDbArc
50
53.8067926944071
51
216.193207305563
0
ARC
5
134
330
70
100
AcDbEntity
67
0
8
IV_OUTER_PROFILE
62
256
6
ByLayer
370
-1
48
1.0
60
0
100
AcDbCircle
39
0.0
10
469.581752466541
20
219.581752466541
30
0.0
40
0.505965209765853
210
0.0
220
0.0
230
1.0
100
AcDbArc
50
143.806792694438
51
306.193207305595
0
ARC
5
135
330
70
100
AcDbEntity
67
0
8
IV_OUTER_PROFILE
62
256
6
ByLayer
370
-1
48
1.0
60
0
100
AcDbCircle
39
0.0
10
42.1793074928957
20
219.581752466541
30
0.0
40
0.505965209765818
210
0.0
220
0.0
230
1.0
100
AcDbArc
50
233.806792694422
51
36.1932073055868
0
ENDSEC
0
SECTION
2
OBJECTS
0
DICTIONARY
5
19C
330
0
100
AcDbDictionary
280
1
281
1
3
ACAD_GROUP
350
D
3
ACAD_LAYOUT
350
62
3
ACAD_DGNDEFINITIONS
350
192
3
ACAD_DWFDEFINITIONS
350
193
3
ACAD_PDFDEFINITIONS
350
194
3
ACAD_MLINESTYLE
350
5F
3
ACAD_IMAGE_DICT
350
191
3
ACAD_IMAGE_VARS
350
195
0
DICTIONARY
5
D
330
19C
100
AcDbDictionary
280
1
281
1
0
DICTIONARY
5
62
330
19C
100
AcDbDictionary
280
1
281
1
3
Layout1
350
6F
3
Layout2
350
77
3
Model
350
73
0
DICTIONARY
5
192
330
19C
100
AcDbDictionary
280
1
281
1
0
DICTIONARY
5
193
330
19C
100
AcDbDictionary
280
1
281
1
0
DICTIONARY
5
194
330
19C
100
AcDbDictionary
280
1
281
1
0
DICTIONARY
5
5F
330
19C
100
AcDbDictionary
280
1
281
1
3
STANDARD
350
60
0
DICTIONARY
5
191
330
19C
100
AcDbDictionary
280
1
281
1
0
DICTIONARY
5
18F
330
2
100
AcDbDictionary
280
1
281
1
3
ACAD_LAYERSTATES
360
19D
0
DICTIONARY
5
19D
330
18F
100
AcDbDictionary
280
1
281
1
0
LAYOUT
5
6F
330
62
100
AcDbPlotSettings
1

2

4

6

40
0.0
41
0.0
42
0.0
43
0.0
44
0.0
45
0.0
46
0.0
47
0.0
48
0.0
49
0.0
140
0.0
141
0.0
142
1.0
143
1.0
70
688
72
0
73
0
74
5
7

75
16
76
0
77
2
78
300
147
1.0
148
0.0
149
0.0
100
AcDbLayout
1
Layout1
71
1
10
0.0
20
0.0
11
12.0
21
9.0
12
0.0
22
0.0
32
0.0
14
0.0
24
0.0
34
0.0
15
0.0
25
0.0
35
0.0
146
0.0
13
0.0
23
0.0
33
0.0
16
1.0
26
0.0
36
0.0
17
0.0
27
1.0
37
0.0
76
0
330
6C
0
LAYOUT
5
77
330
62
100
AcDbPlotSettings
1

2

4

6

40
0.0
41
0.0
42
0.0
43
0.0
44
0.0
45
0.0
46
0.0
47
0.0
48
0.0
49
0.0
140
0.0
141
0.0
142
1.0
143
1.0
70
688
72
0
73
0
74
5
7

75
16
76
0
77
2
78
300
147
1.0
148
0.0
149
0.0
100
AcDbLayout
1
Layout2
71
2
10
0.0
20
0.0
11
12.0
21
9.0
12
0.0
22
0.0
32
0.0
14
0.0
24
0.0
34
0.0
15
0.0
25
0.0
35
0.0
146
0.0
13
0.0
23
0.0
33
0.0
16
1.0
26
0.0
36
0.0
17
0.0
27
1.0
37
0.0
76
0
330
74
0
LAYOUT
5
73
330
62
100
AcDbPlotSettings
1

2

4

6

40
0.0
41
0.0
42
0.0
43
0.0
44
0.0
45
0.0
46
0.0
47
0.0
48
0.0
49
0.0
140
0.0
141
0.0
142
1.0
143
1.0
70
1712
72
0
73
0
74
0
7

75
0
76
0
77
2
78
300
147
1.0
148
0.0
149
0.0
100
AcDbLayout
1
Model
71
3
10
0.0
20
0.0
11
12.0
21
9.0
12
0.0
22
0.0
32
0.0
14
0.0
24
0.0
34
0.0
15
0.0
25
0.0
35
0.0
146
0.0
13
0.0
23
0.0
33
0.0
16
1.0
26
0.0
36
0.0
17
0.0
27
1.0
37
0.0
76
0
330
70
0
MLINESTYLE
5
60
330
5F
100
AcDbMlineStyle
2
STANDARD
70
0
3

62
256
51
90.0
52
90.0
71
2
49
0.5
62
256
6
ByLayer
49
-0.5
62
256
6
ByLayer
0
RASTERVARIABLES
5
195
330
191
100
AcDbRasterVariables
90
0
70
1
71
1
72
0
0
ENDSEC
0
EOF
